<?xml version="1.0" encoding="utf-8"?>
<!-- Generator: Adobe Illustrator 15.1.0, SVG Export Plug-In . SVG Version: 6.00 Build 0)  -->
<!DOCTYPE svg PUBLIC "-//W3C//DTD SVG 1.1//EN" "http://www.w3.org/Graphics/SVG/1.1/DTD/svg11.dtd">
<svg version="1.1" id="Layer_1" xmlns:sketch="http://www.bohemiancoding.com/sketch/ns"
	 xmlns="http://www.w3.org/2000/svg" xmlns:xlink="http://www.w3.org/1999/xlink" x="0px" y="0px" width="160px" height="100px"
	 viewBox="0 0 160 100" enable-background="new 0 0 160 100" xml:space="preserve">
<title></title>
<g id="Page-1">
	<g id="DISCOVER">
		<path id="Rectangle-1" fill="#F4F4F4" d="M148,0C140,0,55.301,0,8,0C4,0,0,4,0,8v80c0,8,4,12,12,12c44.623,0,128,0,136,0
			s12-4,12-12V12C160,4,156,0,148,0z"/>
		<path id="Rectangle-1-copy" fill="#D97B16" d="M49.543,100c42.986,0,92.391,0,98.457,0c8,0,12-4,12-12V40.429
			C160,40.429,136.159,82.403,49.543,100z"/>
		<path id="NETWORK" d="M52.039,48.921h1.438l4.451,6.642h0.022v-6.642h1.096V57h-1.392l-4.496-6.642h-0.023V57h-1.095V48.921z
			 M61.122,48.921h5.215v1.027h-4.12v2.408h3.834v1.027h-3.834v2.59h4.325V57h-5.42V48.921z M69.783,49.948h-2.602v-1.027h6.299
			v1.027h-2.602V57h-1.095V49.948z M73.617,48.921h1.141l1.78,6.458h0.022l1.906-6.458h1.255l1.906,6.458h0.022l1.78-6.458h1.142
			L82.221,57h-1.152l-1.962-6.596h-0.023L77.132,57h-1.152L73.617,48.921z M89.33,57.205c-0.615,0-1.183-0.107-1.699-0.324
			c-0.518-0.217-0.961-0.516-1.33-0.896s-0.658-0.829-0.867-1.347c-0.209-0.517-0.314-1.076-0.314-1.677
			c0-0.602,0.105-1.16,0.314-1.678s0.498-0.966,0.867-1.347s0.813-0.679,1.33-0.896c0.517-0.217,1.084-0.325,1.699-0.325
			c0.617,0,1.184,0.108,1.701,0.325c0.517,0.217,0.96,0.516,1.329,0.896c0.368,0.38,0.657,0.829,0.867,1.347
			c0.209,0.518,0.313,1.076,0.313,1.678c0,0.601-0.104,1.16-0.313,1.677c-0.21,0.518-0.499,0.966-0.867,1.347
			c-0.369,0.381-0.813,0.68-1.329,0.896C90.514,57.098,89.947,57.205,89.33,57.205z M89.33,56.178c0.465,0,0.883-0.085,1.256-0.256
			c0.373-0.172,0.691-0.401,0.959-0.69c0.266-0.289,0.471-0.63,0.615-1.021s0.217-0.808,0.217-1.249s-0.072-0.858-0.217-1.25
			s-0.35-0.732-0.615-1.021c-0.268-0.289-0.586-0.519-0.959-0.69c-0.373-0.171-0.791-0.257-1.256-0.257
			c-0.464,0-0.882,0.086-1.255,0.257c-0.372,0.171-0.692,0.401-0.958,0.69c-0.267,0.289-0.473,0.63-0.617,1.021
			s-0.217,0.809-0.217,1.25s0.072,0.857,0.217,1.249s0.351,0.732,0.617,1.021c0.266,0.289,0.586,0.519,0.958,0.69
			C88.448,56.093,88.866,56.178,89.33,56.178C89.33,56.178,88.866,56.178,89.33,56.178z M95.116,48.921h2.841
			c0.518,0,0.943,0.07,1.278,0.211s0.599,0.32,0.793,0.537s0.329,0.46,0.405,0.73c0.076,0.27,0.114,0.531,0.114,0.781
			c0,0.26-0.046,0.508-0.138,0.748c-0.091,0.24-0.222,0.457-0.393,0.65c-0.172,0.193-0.381,0.357-0.628,0.49
			c-0.247,0.134-0.522,0.215-0.827,0.246L100.855,57h-1.369l-2.054-3.561h-1.222V57h-1.095V48.921z M96.211,52.48h1.438
			c0.213,0,0.424-0.017,0.634-0.051c0.209-0.034,0.395-0.097,0.559-0.188c0.164-0.092,0.295-0.223,0.394-0.395
			c0.099-0.171,0.148-0.394,0.148-0.668c0-0.273-0.05-0.496-0.148-0.667c-0.099-0.171-0.229-0.302-0.394-0.394
			s-0.35-0.154-0.559-0.188c-0.21-0.034-0.421-0.051-0.634-0.051h-1.438V52.48z M102.088,48.921h1.096v3.491h0.092l3.571-3.491
			h1.529l-3.903,3.731L108.639,57h-1.598l-3.766-4.039h-0.092V57h-1.096V48.921z"/>
		<path d="M14.133,23.884h7.533c1.26,0,2.475,0.194,3.645,0.581c1.17,0.387,2.205,0.977,3.105,1.769s1.62,1.787,2.16,2.983
			c0.54,1.197,0.81,2.605,0.81,4.226c0,1.638-0.311,3.056-0.932,4.252c-0.621,1.197-1.422,2.187-2.403,2.97
			c-0.981,0.783-2.07,1.368-3.267,1.755C23.588,42.807,22.414,43,21.262,43h-7.128V23.884z M20.073,39.922
			c1.063,0,2.066-0.122,3.011-0.364c0.945-0.243,1.769-0.621,2.471-1.134c0.702-0.513,1.255-1.179,1.66-1.998
			c0.405-0.819,0.607-1.813,0.607-2.983c0-1.152-0.18-2.142-0.54-2.97c-0.36-0.828-0.86-1.499-1.499-2.012
			c-0.639-0.513-1.395-0.891-2.268-1.134c-0.873-0.243-1.832-0.365-2.875-0.365h-3.105v12.96H20.073z M34.545,23.884h3.402V43
			h-3.402V23.884z M51.501,27.988c-0.36-0.522-0.841-0.904-1.444-1.147c-0.603-0.243-1.238-0.364-1.904-0.364
			c-0.396,0-0.778,0.045-1.147,0.135c-0.369,0.09-0.702,0.234-0.999,0.432c-0.297,0.198-0.535,0.455-0.715,0.77
			s-0.27,0.688-0.27,1.121c0,0.648,0.225,1.143,0.675,1.485c0.45,0.342,1.008,0.639,1.674,0.891s1.395,0.495,2.187,0.729
			s1.521,0.558,2.187,0.972c0.666,0.414,1.224,0.963,1.674,1.647c0.45,0.684,0.675,1.593,0.675,2.727
			c0,1.026-0.189,1.922-0.567,2.687c-0.378,0.765-0.886,1.4-1.525,1.904s-1.381,0.882-2.228,1.134
			c-0.846,0.252-1.737,0.378-2.673,0.378c-1.188,0-2.331-0.198-3.429-0.594s-2.043-1.062-2.835-1.998l2.565-2.484
			c0.414,0.63,0.958,1.12,1.634,1.471c0.675,0.351,1.39,0.527,2.146,0.527c0.396,0,0.792-0.054,1.188-0.162s0.756-0.27,1.08-0.486
			c0.324-0.216,0.585-0.49,0.783-0.823c0.198-0.333,0.297-0.715,0.297-1.147c0-0.702-0.225-1.242-0.675-1.62
			s-1.008-0.697-1.674-0.958c-0.666-0.261-1.395-0.508-2.187-0.743c-0.792-0.234-1.521-0.553-2.187-0.958
			c-0.666-0.405-1.224-0.945-1.674-1.62c-0.45-0.675-0.675-1.58-0.675-2.714c0-0.99,0.203-1.845,0.607-2.565
			c0.405-0.72,0.936-1.318,1.593-1.795c0.657-0.477,1.408-0.833,2.254-1.066c0.846-0.234,1.71-0.351,2.592-0.351
			c1.008,0,1.984,0.153,2.93,0.459c0.945,0.306,1.795,0.81,2.551,1.512c0,0-0.756-0.702,0,0L51.501,27.988z M70.752,28.366
			c-0.702-0.756-1.381-1.26-2.039-1.512c-0.657-0.252-1.318-0.378-1.984-0.378c-0.99,0-1.886,0.175-2.687,0.526
			s-1.489,0.837-2.065,1.458s-1.021,1.346-1.336,2.173c-0.315,0.828-0.473,1.719-0.473,2.673c0,1.026,0.158,1.971,0.473,2.835
			c0.315,0.864,0.76,1.611,1.336,2.241c0.576,0.63,1.265,1.125,2.065,1.485c0.801,0.36,1.696,0.54,2.687,0.54
			c0.774,0,1.525-0.185,2.254-0.554s1.409-0.958,2.039-1.769l2.808,1.998c-0.864,1.188-1.917,2.052-3.159,2.592
			c-1.242,0.54-2.565,0.81-3.969,0.81c-1.476,0-2.831-0.238-4.063-0.715c-1.233-0.477-2.295-1.152-3.186-2.025
			s-1.589-1.921-2.093-3.146s-0.756-2.583-0.756-4.077c0-1.53,0.252-2.92,0.756-4.171s1.202-2.317,2.093-3.2
			c0.891-0.882,1.953-1.562,3.186-2.039c1.233-0.477,2.587-0.715,4.063-0.715c1.296,0,2.498,0.229,3.604,0.688
			s2.137,1.238,3.091,2.335c0,0-0.954-1.098,0,0L70.752,28.366z M96.402,23.884h3.915l5.211,14.445l5.373-14.445h3.673L106.852,43
			h-2.943L96.402,23.884z M116.625,23.884h12.664v3.078h-9.262v4.698h8.775v3.078h-8.775v5.184h9.747V43h-13.149V23.884z
			 M133.123,23.884h6.642c0.918,0,1.804,0.086,2.659,0.257s1.615,0.463,2.281,0.877s1.197,0.972,1.594,1.674
			c0.396,0.702,0.594,1.593,0.594,2.673c0,1.386-0.383,2.547-1.147,3.483s-1.858,1.503-3.28,1.701L147.541,43h-4.104l-4.429-8.1
			h-2.483V43h-3.401V23.884z M139.17,31.984c0.486,0,0.973-0.022,1.459-0.067c0.485-0.045,0.932-0.153,1.336-0.324
			c0.405-0.171,0.734-0.432,0.986-0.783s0.377-0.842,0.377-1.472c0-0.558-0.117-1.008-0.351-1.35
			c-0.233-0.342-0.54-0.598-0.918-0.769c-0.378-0.171-0.796-0.284-1.255-0.338c-0.459-0.054-0.905-0.081-1.338-0.081h-2.942v5.184
			H139.17z"/>
		<circle id="Oval-1" fill="#D97B16" cx="86.05" cy="33.45" r="10.05"/>
	</g>
</g>
</svg>
