<?xml version="1.0" encoding="utf-8"?>
<!-- Generator: Adobe Illustrator 15.1.0, SVG Export Plug-In . SVG Version: 6.00 Build 0)  -->
<!DOCTYPE svg PUBLIC "-//W3C//DTD SVG 1.1//EN" "http://www.w3.org/Graphics/SVG/1.1/DTD/svg11.dtd">
<svg version="1.1" id="Layer_1" xmlns:sketch="http://www.bohemiancoding.com/sketch/ns"
	 xmlns="http://www.w3.org/2000/svg" xmlns:xlink="http://www.w3.org/1999/xlink" x="0px" y="0px" width="160px" height="100px"
	 viewBox="0 0 160 100" enable-background="new 0 0 160 100" xml:space="preserve">
<title></title>
<path id="Rectangle-1" fill="#0C1357" d="M148,0C140,0,55.301,0,8,0C4,0,0,4,0,8v80c0,8,4,12,12,12c44.623,0,128,0,136,0s12-4,12-12
	V12C160,4,156,0,148,0z"/>
<path id="path2268" fill="#FFAB00" d="M149.545,50.5c0.007,23.238-18.625,42.079-41.615,42.086
	c-22.99,0.006-41.631-18.826-41.637-42.064V50.5C66.287,27.263,84.919,8.42,107.908,8.414c22.99-0.006,41.631,18.827,41.637,42.064
	V50.5C149.545,50.5,149.545,50.492,149.545,50.5L149.545,50.5L149.545,50.5z"/>
<path id="path1350" fill="#EC0000" d="M51.813,8.425C28.959,8.572,10.454,27.365,10.454,50.5c0,23.225,18.649,42.074,41.627,42.074
	c10.784,0,20.614-4.154,28.011-10.963c0,0-0.001,0-0.003-0.002h0.009c1.515-1.395,2.928-2.9,4.227-4.505h-8.529
	c-1.139-1.39-2.174-2.839-3.104-4.334H87.4c0.895-1.446,1.704-2.949,2.423-4.505h-19.56c-0.667-1.445-1.246-2.922-1.74-4.421h23.041
	c1.389-4.194,2.143-8.681,2.143-13.345c0-3.092-0.332-6.107-0.959-9.01H67.302c0.315-1.494,0.713-2.97,1.188-4.42h23.05
	c-0.516-1.543-1.113-3.047-1.795-4.505H70.261c0.703-1.518,1.499-2.994,2.388-4.419h14.698c-0.979-1.575-2.061-3.08-3.231-4.505
	h-8.194c1.267-1.507,2.662-2.927,4.176-4.25C72.7,12.58,62.867,8.425,52.081,8.425C51.991,8.425,51.902,8.424,51.813,8.425
	C51.813,8.425,51.902,8.424,51.813,8.425L51.813,8.425L51.813,8.425z"/>
<path id="path4157" fill="#FFFFFF" d="M67.049,61.213l0.555-3.809c-0.303,0-0.749,0.131-1.142,0.131
	c-1.543,0-1.713-0.828-1.615-1.441l1.246-7.77h2.345l0.566-4.212h-2.211l0.45-2.62h-4.432c-0.098,0.099-2.616,14.732-2.616,16.514
	c0,2.638,1.465,3.813,3.531,3.793C65.345,61.785,66.605,61.333,67.049,61.213C67.049,61.213,66.605,61.333,67.049,61.213
	L67.049,61.213L67.049,61.213z"/>
<path id="path4155" fill="#FFFFFF" d="M68.454,53.952c0,6.331,4.134,7.835,7.656,7.835c3.251,0,4.681-0.734,4.681-0.734l0.781-4.32
	c0,0-2.473,1.101-4.706,1.101c-4.759,0-3.926-3.587-3.926-3.587h9.007c0,0,0.582-2.902,0.582-4.085c0-2.952-1.454-6.548-6.32-6.548
	C71.753,43.614,68.454,48.467,68.454,53.952C68.454,53.952,68.454,48.467,68.454,53.952L68.454,53.952L68.454,53.952z
	 M76.226,47.625c2.501,0,2.04,2.841,2.04,3.071h-4.921C73.345,50.402,73.811,47.625,76.226,47.625
	C76.226,47.625,73.811,47.625,76.226,47.625L76.226,47.625L76.226,47.625z"/>
<path id="path4151" fill="#FFFFFF" d="M104.292,61.211l0.793-4.885c0,0-2.175,1.103-3.667,1.103c-3.145,0-4.405-2.427-4.405-5.034
	c0-5.288,2.705-8.197,5.717-8.197c2.259,0,4.071,1.282,4.071,1.282l0.723-4.746c0,0-2.688-1.099-4.991-1.099
	c-5.116,0-10.095,4.486-10.095,12.913c0,5.587,2.688,9.277,7.977,9.277C101.91,61.824,104.292,61.211,104.292,61.211L104.292,61.211
	L104.292,61.211L104.292,61.211z"/>
<path id="path4149" fill="#FFFFFF" d="M42.673,43.683c-3.039,0-5.369,0.987-5.369,0.987l-0.643,3.859c0,0,1.923-0.79,4.83-0.79
	c1.65,0,2.858,0.188,2.858,1.543c0,0.824-0.148,1.127-0.148,1.127s-1.302-0.11-1.904-0.11c-3.833,0-7.86,1.653-7.86,6.638
	c0,3.929,2.642,4.83,4.279,4.83c3.127,0,4.475-2.051,4.547-2.057l-0.146,1.711h3.902l1.741-12.337
	C48.759,43.851,44.242,43.683,42.673,43.683L42.673,43.683L42.673,43.683L42.673,43.683z M43.623,53.728
	c0.084,0.754-0.467,4.286-3.136,4.286c-1.376,0-1.735-1.063-1.735-1.691c0-1.227,0.659-2.698,3.907-2.698
	C43.415,53.625,43.495,53.707,43.623,53.728C43.623,53.728,43.495,53.707,43.623,53.728L43.623,53.728L43.623,53.728z"/>
<path id="path4145" fill="#FFFFFF" d="M52.907,61.678c0.998,0,6.706,0.256,6.706-5.696c0-5.565-5.283-4.466-5.283-6.701
	c0-1.113,0.861-1.464,2.435-1.464c0.625,0,3.029,0.201,3.029,0.201l0.559-3.956c0,0-1.556-0.352-4.089-0.352
	c-3.279,0-6.607,1.323-6.607,5.849c0,5.129,5.549,4.615,5.549,6.775c0,1.442-1.55,1.56-2.745,1.56c-2.068,0-3.93-0.717-3.936-0.683
	l-0.591,3.916C48.041,61.16,49.189,61.678,52.907,61.678C52.907,61.678,49.189,61.678,52.907,61.678L52.907,61.678L52.907,61.678z"
	/>
<path id="path4139" fill="#FFFFFF" d="M141.004,40.133l-0.955,5.996c0,0-1.669-2.329-4.28-2.329c-4.062,0-7.446,4.949-7.446,10.636
	c0,3.67,1.806,7.268,5.496,7.268c2.655,0,4.127-1.871,4.127-1.871l-0.195,1.598h4.312l3.386-21.304L141.004,40.133L141.004,40.133
	L141.004,40.133L141.004,40.133z M138.946,51.824c0,2.365-1.159,5.526-3.562,5.526c-1.596,0-2.344-1.353-2.344-3.478
	c0-3.473,1.544-5.765,3.491-5.765C138.128,48.108,138.946,49.216,138.946,51.824C138.946,51.824,138.946,49.216,138.946,51.824
	L138.946,51.824L138.946,51.824z"/>
<path id="path4133" fill="#FFFFFF" d="M18.675,61.447l2.698-16.083l0.396,16.083h3.054l5.696-16.083l-2.523,16.083h4.537
	l3.495-21.332h-7.017l-4.37,13.088l-0.227-13.088h-6.468l-3.545,21.332H18.675L18.675,61.447L18.675,61.447L18.675,61.447z"/>
<path id="path4131" fill="#FFFFFF" d="M86.961,61.478c1.291-7.415,1.529-13.437,4.608-12.334c0.538-2.87,1.06-3.98,1.647-5.195
	c0,0-0.276-0.058-0.855-0.058c-1.984,0-3.455,2.741-3.455,2.741l0.396-2.517h-4.127L82.41,61.478H86.961L86.961,61.478
	L86.961,61.478L86.961,61.478z"/>
<path id="path4149_1_" fill="#FFFFFF" d="M114.519,43.683c-3.039,0-5.368,0.987-5.368,0.987l-0.644,3.859c0,0,1.923-0.79,4.829-0.79
	c1.65,0,2.857,0.188,2.857,1.543c0,0.824-0.146,1.127-0.146,1.127s-1.303-0.11-1.906-0.11c-3.832,0-7.858,1.653-7.858,6.638
	c0,3.929,2.642,4.83,4.278,4.83c3.127,0,4.475-2.051,4.547-2.057l-0.146,1.711h3.903l1.741-12.337
	C120.605,43.851,116.088,43.683,114.519,43.683L114.519,43.683L114.519,43.683L114.519,43.683z M115.469,53.728
	c0.086,0.754-0.467,4.286-3.137,4.286c-1.377,0-1.733-1.063-1.733-1.691c0-1.227,0.659-2.698,3.906-2.698
	C115.26,53.625,115.341,53.707,115.469,53.728C115.469,53.728,115.341,53.707,115.469,53.728L115.469,53.728L115.469,53.728z"/>
<path id="path4131_1_" fill="#FFFFFF" d="M124.172,61.478c1.291-7.415,1.529-13.437,4.607-12.334c0.539-2.87,1.061-3.98,1.648-5.195
	c0,0-0.276-0.058-0.855-0.058c-1.984,0-3.455,2.741-3.455,2.741l0.395-2.517h-4.126l-2.765,17.364H124.172L124.172,61.478
	L124.172,61.478L124.172,61.478z"/>
</svg>
