<?xml version="1.0" encoding="utf-8"?>
<!-- Generator: Adobe Illustrator 15.1.0, SVG Export Plug-In . SVG Version: 6.00 Build 0)  -->
<!DOCTYPE svg PUBLIC "-//W3C//DTD SVG 1.1//EN" "http://www.w3.org/Graphics/SVG/1.1/DTD/svg11.dtd">
<svg version="1.1" id="Layer_1" xmlns:sketch="http://www.bohemiancoding.com/sketch/ns"
	 xmlns="http://www.w3.org/2000/svg" xmlns:xlink="http://www.w3.org/1999/xlink" x="0px" y="0px" width="160px" height="100px"
	 viewBox="0 0 160 100" enable-background="new 0 0 160 100" xml:space="preserve">
<title></title>
<path id="Rectangle-1" fill="#FFFFFF" d="M148,0C140,0,55.301,0,8,0C4,0,0,4,0,8v80c0,8,4,12,12,12c44.623,0,128,0,136,0s12-4,12-12
	V12C160,4,156,0,148,0z"/>
<path id="pal" fill="#0095DF" d="M151.765,33.457h-4.2c-0.002,0-0.005,0.001-0.006,0.001l-0.003-0.001
	c-0.962,0-1.938,0.717-2.21,1.629c-0.011,0.037-0.029,0.072-0.039,0.111c0,0-0.1,0.445-0.273,1.214l-5.77,25.463
	c-0.133,0.575-0.223,0.95-0.25,1.048l0.012,0.014c-0.199,0.89,0.35,1.626,1.252,1.708l0.012,0.018h4.359
	c0.955,0,1.926-0.71,2.206-1.611c0.014-0.043,0.034-0.084,0.045-0.128l6.294-27.728l-0.01-0.003
	C153.398,34.244,152.771,33.457,151.765,33.457z M130.22,58.482c-0.583,0.357-1.198,0.664-1.843,0.924
	c-0.867,0.341-1.689,0.52-2.449,0.52c-1.166,0-2.063-0.161-2.67-0.505c-0.607-0.325-0.925-0.892-0.914-1.703
	c0-0.937,0.221-1.663,0.681-2.231c0.463-0.549,1.15-0.99,2.003-1.318c0.848-0.28,1.891-0.511,3.094-0.676
	c1.07-0.131,3.188-0.369,3.458-0.371s0.45-0.146,0.33,0.556c-0.054,0.306-0.665,2.747-0.944,3.858
	C130.883,57.867,130.428,58.353,130.22,58.482C130.22,58.482,130.428,58.353,130.22,58.482z M138.525,41.315
	c-1.782-0.968-4.57-1.458-8.385-1.458c-1.887,0-3.783,0.147-5.686,0.435c-1.396,0.208-1.541,0.243-2.408,0.427
	c-1.785,0.378-2.061,2.118-2.061,2.118l-0.572,2.295c-0.326,1.468,0.533,1.407,0.916,1.293c0.779-0.229,1.201-0.457,2.791-0.807
	c1.52-0.336,3.125-0.587,4.406-0.577c1.879,0,3.309,0.201,4.258,0.586c0.951,0.404,1.421,1.091,1.421,2.074
	c0.003,0.234,0.01,0.454-0.077,0.647c-0.078,0.18-0.229,0.354-0.678,0.413c-2.682,0.155-4.605,0.394-6.924,0.722
	c-2.287,0.313-4.287,0.851-5.961,1.594c-1.783,0.771-3.117,1.801-4.037,3.107c-0.895,1.313-1.344,2.9-1.347,4.771
	c0,1.77,0.653,3.211,1.915,4.332c1.279,1.104,2.941,1.652,4.953,1.652c1.256-0.009,2.24-0.098,2.945-0.269
	c0.697-0.171,1.458-0.415,2.262-0.754c0.601-0.245,1.249-0.599,1.934-1.042c0.686-0.445,1.159-0.761,1.768-1.148l0.022,0.037
	l-0.171,0.734c-0.001,0.008-0.012,0.012-0.012,0.019l0.006,0.014c-0.195,0.886,0.352,1.623,1.253,1.71l0.011,0.016h0.08l0.003,0.004
	c0.599,0,2.652-0.001,3.612-0.004h0.67c0.045,0,0.049-0.014,0.066-0.023c0.92-0.109,1.803-0.84,2.011-1.716l3.429-14.407
	c0.078-0.339,0.141-0.73,0.178-1.181c0.043-0.455,0.094-0.829,0.078-1.1C141.203,43.792,140.304,42.285,138.525,41.315
	L138.525,41.315z M117.881,38.034c-0.584-1.108-1.468-2.001-2.585-2.696c-1.146-0.693-2.507-1.177-4.081-1.458
	c-1.559-0.266-3.412-0.418-5.522-0.423l-9.821,0.004c-1.012,0.017-2.004,0.791-2.238,1.743L87.03,63.182
	c-0.241,0.951,0.416,1.743,1.409,1.738l4.713-0.009c0.999,0.009,2.018-0.778,2.254-1.729l1.592-6.789
	c0.225-0.951,1.24-1.749,2.256-1.734h1.34c5.748,0,10.205-1.15,13.396-3.439c3.184-2.3,4.786-5.318,4.786-9.071
	C118.766,40.51,118.479,39.129,117.881,38.034z M107.748,47.185c-1.406,0.996-3.381,1.496-5.92,1.496h-1.169
	c-1.011,0.012-1.663-0.784-1.423-1.738l1.408-5.938c0.209-0.939,1.234-1.738,2.231-1.731l1.543-0.007
	c1.802,0.007,3.149,0.301,4.079,0.884c0.916,0.59,1.359,1.506,1.366,2.726C109.868,44.735,109.162,46.166,107.748,47.185"/>
<path id="pay" fill="#022883" d="M84.836,39.857c-0.895,0-2.068,0.709-2.623,1.566c0,0-5.982,10.045-6.57,11.049
	c-0.319,0.54-0.643,0.197-0.697-0.004c-0.043-0.244-1.854-10.979-1.854-10.979c-0.204-0.864-1.125-1.606-2.278-1.603l-3.73,0.005
	c-0.899,0-1.46,0.706-1.26,1.558c0,0,2.851,15.831,3.407,19.555c0.277,2.06-0.029,2.425-0.029,2.425l-3.697,6.313
	c-0.541,0.856-0.245,1.558,0.65,1.558l4.323-0.003c0.895,0,2.081-0.698,2.613-1.556l16.63-27.55c0,0,1.59-2.354,0.123-2.334
	C88.846,39.872,84.836,39.857,84.836,39.857z M53.614,58.482c-0.583,0.357-1.198,0.662-1.843,0.924
	c-0.867,0.338-1.692,0.518-2.45,0.518c-1.164,0-2.063-0.16-2.67-0.503c-0.606-0.327-0.926-0.894-0.916-1.704
	c0-0.935,0.224-1.663,0.683-2.232c0.463-0.548,1.147-0.99,2-1.318c0.85-0.281,1.896-0.509,3.096-0.674
	c1.07-0.131,3.189-0.368,3.459-0.372c0.269-0.001,0.449-0.147,0.329,0.555c-0.052,0.306-0.664,2.749-0.944,3.859
	C54.274,57.869,53.819,58.354,53.614,58.482C53.614,58.482,53.819,58.354,53.614,58.482z M61.92,41.315
	c-1.782-0.969-4.57-1.458-8.385-1.458c-1.888,0-3.783,0.146-5.686,0.435c-1.399,0.207-1.54,0.242-2.408,0.426
	c-1.786,0.379-2.06,2.118-2.06,2.118l-0.573,2.296c-0.325,1.467,0.535,1.406,0.917,1.292c0.777-0.229,1.202-0.456,2.792-0.808
	c1.517-0.334,3.125-0.585,4.405-0.576c1.88,0,3.308,0.2,4.257,0.585c0.951,0.403,1.419,1.092,1.419,2.074
	c0.006,0.234,0.011,0.455-0.074,0.646c-0.08,0.182-0.231,0.354-0.68,0.413c-2.679,0.158-4.603,0.396-6.924,0.724
	c-2.287,0.313-4.287,0.851-5.961,1.594c-1.783,0.77-3.116,1.803-4.034,3.107c-0.898,1.311-1.348,2.9-1.349,4.771
	c0,1.768,0.654,3.211,1.915,4.33c1.279,1.105,2.94,1.654,4.951,1.654c1.257-0.009,2.24-0.099,2.948-0.269
	c0.697-0.173,1.458-0.415,2.259-0.754c0.603-0.245,1.25-0.6,1.935-1.042c0.684-0.445,1.161-0.761,1.771-1.148l0.019,0.035
	l-0.171,0.735c-0.001,0.007-0.011,0.012-0.011,0.021l0.007,0.012c-0.196,0.888,0.35,1.624,1.252,1.709l0.011,0.018h0.079
	l0.002,0.006c0.6,0,2.655-0.004,3.612-0.006h0.671c0.045,0,0.051-0.015,0.065-0.023c0.923-0.113,1.802-0.842,2.012-1.715
	l3.428-14.409c0.078-0.338,0.141-0.729,0.175-1.179c0.046-0.458,0.096-0.83,0.083-1.1C64.599,43.791,63.697,42.284,61.92,41.315z
	 M40.476,38.034c-0.585-1.108-1.468-2.001-2.585-2.696c-1.145-0.693-2.506-1.177-4.082-1.458c-1.558-0.266-3.411-0.418-5.521-0.423
	l-9.822,0.004c-1.011,0.017-2.003,0.791-2.237,1.743L9.625,63.182c-0.241,0.951,0.416,1.743,1.409,1.738l4.712-0.009
	c1,0.009,2.018-0.778,2.254-1.729l1.593-6.789c0.224-0.951,1.239-1.749,2.255-1.734h1.34c5.748,0,10.205-1.15,13.396-3.439
	c3.184-2.3,4.786-5.318,4.786-9.071C41.36,40.51,41.074,39.129,40.476,38.034z M30.343,47.185c-1.407,0.996-3.381,1.496-5.921,1.496
	h-1.168c-1.011,0.012-1.664-0.784-1.423-1.738l1.408-5.938c0.21-0.939,1.235-1.738,2.231-1.731l1.543-0.007
	c1.801,0.007,3.149,0.301,4.08,0.884c0.915,0.59,1.358,1.506,1.366,2.726C32.462,44.735,31.756,46.166,30.343,47.185"/>
</svg>
