<?xml version="1.0" encoding="utf-8"?>
<!-- Generator: Adobe Illustrator 15.1.0, SVG Export Plug-In . SVG Version: 6.00 Build 0)  -->
<!DOCTYPE svg PUBLIC "-//W3C//DTD SVG 1.1//EN" "http://www.w3.org/Graphics/SVG/1.1/DTD/svg11.dtd">
<svg version="1.1" id="Layer_1" xmlns:sketch="http://www.bohemiancoding.com/sketch/ns"
	 xmlns="http://www.w3.org/2000/svg" xmlns:xlink="http://www.w3.org/1999/xlink" x="0px" y="0px" width="160px" height="100px"
	 viewBox="0 0 160 100" enable-background="new 0 0 160 100" xml:space="preserve">
<title></title>
<g id="Page-1">
	<g id="Visa">
		<rect id="Rectangle-20" y="9" fill="#FFFFFF" width="160" height="80"/>
		<path id="Rectangle-1" fill="#265697" d="M148,0C140,0,55.301,0,8,0C4,0,0,4,0,8v12h160c0,0,0,18.572,0-8C160,4,156,0,148,0z"/>
		<path id="Rectangle-1_1_" fill="#D97B16" d="M0,80c0,0,0,0,0,8s4,12,12,12c44.623,0,128,0,136,0s12-4,12-12v-8H0z"/>
		<path id="Shape" fill="#265697" d="M111.615,29.782c-2.243-0.86-5.757-1.782-10.145-1.782c-11.184,0-19.063,5.755-19.129,14.003
			c-0.063,6.097,5.623,9.498,9.917,11.528c4.405,2.079,5.887,3.406,5.865,5.263c-0.027,2.845-3.519,4.144-6.771,4.144
			c-4.531,0-6.938-0.643-10.654-2.228l-1.459-0.674l-1.589,9.499c2.644,1.184,7.532,2.21,12.608,2.264
			c11.897,0,19.621-5.689,19.709-14.497c0.043-4.827-2.973-8.5-9.502-11.528c-3.957-1.963-6.38-3.273-6.354-5.261
			c0-1.764,2.051-3.649,6.48-3.649c3.702-0.059,6.383,0.766,8.473,1.625l1.014,0.49L111.615,29.782"/>
		<path id="Shape_1_" fill="#265697" d="M140.639,28.778h-8.746c-2.709,0-4.736,0.756-5.927,3.519l-16.81,38.885h11.885
			c0,0,1.943-5.229,2.383-6.376c1.299,0,12.846,0.019,14.496,0.019c0.338,1.484,1.377,6.357,1.377,6.357h10.502L140.639,28.778
			L140.639,28.778z M126.682,56.127c0.936-2.445,4.51-11.861,4.51-11.861c-0.067,0.113,0.929-2.457,1.5-4.05l0.766,3.658
			c0,0,2.167,10.128,2.62,12.253H126.682L126.682,56.127L126.682,56.127L126.682,56.127z"/>
		<path id="Shape_2_" fill="#265697" d="M59.25,71.168l7.077-42.431h11.318l-7.082,42.431H59.25z"/>
		<path id="Shape_3_" fill="#265697" d="M49.757,28.769L38.676,57.703l-1.181-5.88c-2.063-6.778-8.49-14.123-15.676-17.799
			l10.132,37.108l11.976-0.014l17.819-42.35H49.757"/>
		<path id="Shape_4_" fill="#D97B16" d="M28.396,28.742H10.145L10,29.625c14.199,3.512,23.595,12,27.495,22.198l-3.968-19.499
			C32.841,29.638,30.854,28.836,28.396,28.742"/>
	</g>
</g>
</svg>
